<?xml version="1.0" encoding="UTF-8" standalone="no"?>
<!DOCTYPE svg PUBLIC "-//W3C//DTD SVG 1.1//EN" "http://www.w3.org/Graphics/SVG/1.1/DTD/svg11.dtd">
<svg width="100%" height="100%" viewBox="0 0 144 146" version="1.1" xmlns="http://www.w3.org/2000/svg" xmlns:xlink="http://www.w3.org/1999/xlink" xml:space="preserve" xmlns:serif="http://www.serif.com/" style="fill-rule:evenodd;clip-rule:evenodd;stroke-linejoin:round;stroke-miterlimit:2;">
    <g transform="matrix(1,0,0,1,69.9851,24.7568)">
        <path d="M0,37.559C38.383,40.27 60.231,54.191 71.165,64.147C72.143,60.194 72.816,56.113 73.113,51.913C75.284,21.179 57.724,-6.388 31.208,-18.394C31.012,4.496 23.584,22.442 16.504,34.389C11.479,33.531 6.105,32.873 0.359,32.467C0.173,32.454 0,32.434 -0.185,32.42C3.08,27.782 6.987,21.222 10.152,12.898L-13.566,24.116C-14.539,24.575 -15.572,24.754 -16.574,24.684C-18.684,24.535 -20.654,23.282 -21.623,21.233C-23.05,18.212 -21.761,14.606 -18.74,13.177L14.471,-2.53C15.111,-5.951 15.596,-9.541 15.842,-13.325L-35.444,10.931C-36.416,11.389 -37.449,11.569 -38.451,11.498C-40.561,11.349 -42.532,10.097 -43.5,8.048C-44.928,5.027 -43.639,1.42 -40.618,-0.009L10.538,-24.201C9.274,-24.358 8.001,-24.485 6.716,-24.576C-21.78,-26.588 -47.551,-11.638 -60.723,11.685C-54.536,20.962 -38.88,34.813 0,37.559" style="fill:rgb(76,134,197);fill-rule:nonzero;"/>
    </g>
    <g transform="matrix(1,0,0,1,62.9641,125.458)">
        <path d="M0,-48.167C-30.367,-50.837 -49.135,-60.142 -60.657,-69.804C-61.734,-65.633 -62.469,-61.315 -62.783,-56.864C-64.875,-27.253 -48.654,-0.579 -23.752,12.068C-23.875,-11.534 -16.286,-30.006 -9.053,-42.21C-4.029,-41.353 1.345,-40.695 7.092,-40.289C7.278,-40.276 7.451,-40.256 7.636,-40.242C4.371,-35.604 0.464,-29.044 -2.701,-20.72L21.018,-31.938C21.99,-32.396 23.023,-32.576 24.025,-32.505C26.135,-32.356 28.105,-31.104 29.074,-29.055C30.501,-26.034 29.212,-22.428 26.191,-20.999L-7.02,-5.292C-7.66,-1.871 -8.145,1.719 -8.391,5.503L42.895,-18.752C43.867,-19.211 44.9,-19.391 45.902,-19.32C48.012,-19.171 49.983,-17.918 50.952,-15.87C52.379,-12.849 51.089,-9.242 48.069,-7.813L-6.769,18.12C-3.396,18.86 0.067,19.374 3.614,19.624C32.122,21.637 57.902,6.672 71.069,-16.667C63.968,-29.714 45.597,-44.158 0,-48.167" style="fill:rgb(26,35,66);fill-rule:nonzero;"/>
    </g>
</svg>
